<?xml version="1.0" encoding="UTF-8"?><svg id="_レイヤー_2" xmlns="http://www.w3.org/2000/svg" viewBox="0 0 150 150"><defs><style>.cls-1{fill:#3dc1f0;}</style></defs><path class="cls-1" d="m48.76,66.28c3.81,10.83,14.1,18.61,26.23,18.61s22.43-7.78,26.23-18.61c5.17-1.36,9.02-6.49,9.02-12.62,0-4.3-1.9-8.1-4.81-10.46l.48-2.52c0-17.08-13.85-30.92-30.92-30.92s-30.92,13.84-30.92,30.92l.48,2.53c-2.91,2.36-4.8,6.16-4.8,10.46,0,6.13,3.85,11.25,9.02,12.62Z"/><path class="cls-1" d="m94.87,86.14c-3,2.06-19.87,20.55-19.87,20.55,0,0-17.26-18.7-20.4-20.93-8,6.32-23.65,16.61-23.65,40.76,0,5,12.58,13.73,44.04,13.73s44.04-8.73,44.04-13.73c0-19.99-16.36-32.65-24.17-40.37Z"/></svg>