<?xml version="1.0" encoding="UTF-8"?><svg id="_レイヤー_2" xmlns="http://www.w3.org/2000/svg" viewBox="0 0 150 150"><defs><style>.cls-1{fill:#3dc1f0;}</style></defs><path class="cls-1" d="m45.2,92.92c-.02-.22-.09-.41-.09-.63v-1.84c0-.88.14-1.74.43-2.57,0,0,4.6-6.15,6.77-13.38-2.38-5.02-4.54-11.27-4.54-17.47,0-1.44.11-2.83.25-4.2-3.1-3.25-7.29-5.09-11.92-5.09-9.56,0-17.32,7.8-17.32,19.92,0,9.7,7.89,20.23,7.89,20.23.28.82.42,1.69.42,2.57v1.84c0,2.3-1.34,4.39-3.44,5.35l-12.53,5.12c-2.91,1.34-4.98,4.02-5.56,7.17l-.22,2.76c-.11,1.44.38,2.85,1.36,3.9.97,1.06,2.35,1.65,3.79,1.65h20.48l.84-10.79.05-.29c1.03-5.66,4.77-10.47,9.99-12.88l3.33-1.36Z"/><path class="cls-1" d="m143.41,109.92c-.57-3.15-2.65-5.82-5.56-7.17l-12.54-5.12c-2.09-.96-3.43-3.05-3.43-5.35v-1.84c0-.88.14-1.74.43-2.57,0,0,7.89-10.53,7.89-20.23,0-12.12-7.75-19.92-17.33-19.92-4.62,0-8.81,1.84-11.92,5.1.15,1.37.26,2.76.26,4.2,0,6.19-2.16,12.44-4.53,17.47,2.17,7.23,6.77,13.39,6.77,13.39.28.82.43,1.69.43,2.57v1.84c0,.22-.07.41-.09.63l3.11,1.27c5.44,2.49,9.18,7.3,10.22,12.96l.05.3.84,10.8h20.49c1.44,0,2.81-.6,3.78-1.65.98-1.05,1.47-2.46,1.36-3.9l-.22-2.76Z"/><path class="cls-1" d="m104.71,99.51l-15.17-6.2c-2.53-1.17-4.15-3.7-4.15-6.47v-2.24c0-1.06.17-2.11.52-3.11,0,0,9.54-12.73,9.54-24.47,0-14.67-9.38-24.1-20.96-24.1s-20.96,9.43-20.96,24.1c0,11.74,9.55,24.47,9.55,24.47.34,1,.52,2.05.52,3.11v2.24c0,2.78-1.63,5.31-4.16,6.47l-15.17,6.2c-3.52,1.62-6.04,4.86-6.73,8.67l-.78,10.05h75.46l-.77-10.05c-.7-3.82-3.21-7.06-6.74-8.67Z"/></svg>