<?xml version="1.0" encoding="UTF-8"?><svg id="_レイヤー_1" xmlns="http://www.w3.org/2000/svg" viewBox="0 0 150 150"><defs><style>.cls-1{fill:#3dc1f0;}</style></defs><path class="cls-1" d="m100.76,130.27c-7.57,0-14.68-2.8-20.02-7.88-11.04-10.5-11.04-27.58,0-38.07,1.25-1.18,2.6-2.23,4.02-3.16v-.6c2.83-2.99,3.86-2.62,6.26-14.36,4.85,0,4.53-5.98,6.82-11.29,1.86-4.32.3-6.07-1.27-6.79,1.28-15.75,1.28-26.6-17.52-29.96-6.82-5.55-17.1-3.67-21.98-2.74-4.87.93-9.26,0-9.26,0l.84,7.46c-7.13,8.14-3.57,18.98-4.71,25.33-1.5.77-2.85,2.56-1.06,6.69,2.29,5.31,1.97,11.29,6.82,11.29,2.4,11.74,3.43,11.37,6.26,14.36v9.57c0,5.98-2.14,6.09-7.01,8.68-11.75,6.24-27.07,9.87-29.81,29.39-.5,3.57,21.06,7.47,51.24,7.48,18.24,0,33.32-1.43,42.29-3.35-1.23-1.31-2.41-2.56-3.17-3.34-2.8.86-5.75,1.3-8.7,1.3Z"/><path class="cls-1" d="m129.28,123.8s-6.68-5.56-8.28-7.08c-2.35-2.22-3.29-3.29-2.46-5.09,3.63-7.02,2.37-15.74-3.77-21.58-7.73-7.35-20.26-7.35-27.99,0-7.73,7.35-7.73,19.25,0,26.6,6.14,5.84,15.32,7.03,22.7,3.59,1.9-.79,3.02.11,5.36,2.34,1.6,1.52,7.44,7.87,7.44,7.87,3.03,2.88,5.36,1.11,6.76-.22,1.4-1.33,3.26-3.55.23-6.43Zm-20.41-12.75c-4.48,4.25-11.73,4.25-16.2,0-4.48-4.25-4.48-11.15,0-15.4,4.47-4.25,11.73-4.25,16.2,0,4.47,4.25,4.47,11.15,0,15.4Z"/></svg>