<?xml version="1.0" encoding="UTF-8"?><svg id="_レイヤー_2" xmlns="http://www.w3.org/2000/svg" viewBox="0 0 150 150"><defs><style>.cls-1{fill:#3dc1f0;}</style></defs><path class="cls-1" d="m38.56,35.41c7.19,0,13.01-5.83,13.01-13.01s-5.82-13.01-13.01-13.01-13.01,5.82-13.01,13.01c0,7.18,5.82,13.01,13.01,13.01Z"/><path class="cls-1" d="m85.36,36.9h-2.67c.04-.21.09-.43.14-.67.92-4.42,2.9-13.8,3.93-17.8,1.04-4,3.13-6.88,5.75-8.8,2.62-1.92,5.78-2.87,8.93-2.87s6.32.95,8.93,2.87c2.62,1.92,4.71,4.8,5.75,8.8.69,2.66,1.8,7.73,2.73,12.11.47,2.19.89,4.22,1.2,5.69.05.24.09.46.14.67h-2.67v2.89h6.21l-.35-1.73s-.76-3.72-1.7-8.11c-.94-4.39-2.05-9.46-2.76-12.23-1.18-4.61-3.69-8.1-6.84-10.4-3.15-2.3-6.91-3.42-10.64-3.42s-7.49,1.12-10.64,3.42c-3.15,2.3-5.66,5.8-6.84,10.4-.71,2.77-1.82,7.83-2.76,12.23-.94,4.4-1.7,8.11-1.7,8.11l-.36,1.73h6.21v-2.89h0Z"/><path class="cls-1" d="m101.44,11.4c-6.07,0-10.99,4.92-10.99,10.99s4.92,10.99,10.99,10.99,10.99-4.92,10.99-10.99-4.92-10.99-10.99-10.99Z"/><polygon class="cls-1" points="32.99 40.46 32.99 47.07 38.56 45.16 44.13 47.07 44.13 40.46 38.56 42.37 32.99 40.46"/><path class="cls-1" d="m125.53,93.15v-39.85c0-3.17-1.73-6.48-4.25-9-2.29-2.27-5.23-3.88-8.12-4.13-.27-.02-.52-.04-.79-.04h-16.66c-.68,0-1.36.04-2.02.11-1.02.12-2.02.32-2.99.61-3.09.91-5.88,2.67-8.04,5.06-1.21,1.32-2.22,2.84-3,4.53l-9.9,21.63-9.9-21.64c-1.92-4.19-5.35-7.38-9.47-9.03l-12.18,19.06-12.87-20.15c-5.74,1.12-11.35,7.28-11.35,12.98v43.73c0,3.15,2.55,5.71,5.71,5.71h3.98l2.17,37.29c0,3.35,2.72,6.07,6.08,6.07h13.27c3.35,0,6.08-2.72,6.08-6.07l2.17-37.29.95-35.08,11.43,24.99c.35.75,1.68,2.48,3.88,2.48h0s0,0,0,0c2.32,0,3.63-1.72,3.98-2.48l11.17-24.4,1.07,10.83c-2.57,4.03-16.83,26.05-18.46,48.41h22.9l1.33,13.65c0,2.44,1.98,4.42,4.43,4.42h9.67c2.44,0,4.42-1.98,4.42-4.42l2-13.65h23.78c-.92-12.6-5.87-25.12-10.47-34.35Zm-54.87,31.46c1.66-13.07,7.82-28.46,17.56-43.74l.14-.23.54-.84-.1-.99-1.07-10.83-2.07-21c1.54-1.43,3.36-2.52,5.36-3.19.3,5.88.84,15.62,10.84,15.62s10.48-10.01,10.6-15.99c0-.13,0-.26,0-.39.15,0,.3,0,.43.02,1.72.15,3.65,1.03,5.36,2.42l-3.33,33.73-.1.99.53.84.08.13c1.29,2.06,4.32,6.87,7.51,13.28,5.33,10.69,8.71,21.04,9.86,30.17h-62.15Z"/></svg>