<?xml version="1.0" encoding="UTF-8"?><svg id="_レイヤー_1" xmlns="http://www.w3.org/2000/svg" viewBox="0 0 150 150"><defs><style>.cls-1{fill:#3dc1f0;}</style></defs><path class="cls-1" d="m39.94,31.54c7.38,0,13.35-5.98,13.35-13.35s-5.98-13.35-13.35-13.35-13.35,5.98-13.35,13.35,5.98,13.35,13.35,13.35Z"/><path class="cls-1" d="m103.99,31.54c7.38,0,13.35-5.98,13.35-13.35s-5.98-13.35-13.35-13.35-13.35,5.98-13.35,13.35,5.98,13.35,13.35,13.35Z"/><path class="cls-1" d="m127.94,98.39c.78-1,1.26-2.23,1.26-3.59v-44.88c0-6.47-7.04-13.51-13.51-13.51h-17.09c-7.09,0-13.52,4.13-16.47,10.58l-10.16,22.21-10.17-22.21c-2.95-6.44-9.38-10.58-16.47-10.58h-17.1c-6.47,0-13.51,7.04-13.51,13.51v44.88c0,3.24,2.62,5.86,5.86,5.86h4.09l2.23,38.27c0,3.44,2.79,6.23,6.24,6.23h13.62c3.44,0,6.24-2.79,6.24-6.23l2.23-38.27.98-35.99,11.74,25.65c.35.77,1.72,2.54,3.99,2.54,2.38,0,3.74-1.77,4.09-2.54l11.74-25.65.56,20.6c-2.65,3.25-14.67,18.74-16.15,34.62h19.4l2.93,19.9c0,2.51,2.04,4.54,4.54,4.54h9.93c2.51,0,4.55-2.03,4.55-4.54l2.93-19.9h18.84c-.72-7.7-3.92-15.32-7.33-21.49Z"/></svg>