<?xml version="1.0" encoding="UTF-8"?><svg id="_レイヤー_1" xmlns="http://www.w3.org/2000/svg" viewBox="0 0 150 150"><defs><style>.cls-1{fill:#3dc1f0;}</style></defs><polygon class="cls-1" points="92.06 53.54 83.54 43.24 75 43.24 66.47 43.24 57.94 53.54 75 68.82 92.06 53.54"/><path class="cls-1" d="m125.76,104.61c-.03-1.39-.34-2.78-.98-4.07l-13.58-27.2c-.78-1.56-1.96-2.83-3.37-3.74,2.2-1.76,3.78-4.28,4.28-7.23l4.92-29.41c.09-.54.13-1.09.13-1.62,0-.95-.17-1.87-.43-2.77l.33-.13-4.28-11.07c-1.79-4.64-6.26-7.7-11.23-7.7h-53.09c-4.97,0-9.44,3.06-11.23,7.7l-4.28,11.07.33.13c-.26.9-.43,1.82-.43,2.77,0,.54.04,1.08.14,1.62l4.92,29.41c.49,2.95,2.08,5.47,4.28,7.23-1.41.91-2.59,2.18-3.37,3.74l-13.58,27.2c-.64,1.28-.96,2.68-.98,4.07h-.07v18.74c0,9.37,7.6,16.97,16.97,16.97h67.75c9.37,0,16.96-7.6,16.96-16.97v-18.74h-.07Zm-5.21,2.83c-.92,1.49-2.52,2.39-4.28,2.39H33.73c-1.76,0-3.36-.89-4.28-2.39-.91-1.47-1-3.35-.22-4.9l13.58-27.2c.86-1.72,2.59-2.79,4.51-2.79h7.04c.65-1.73,1.49-3.35,2.53-4.85h-7.4c-3.55,0-6.59-2.57-7.17-6.07l-4.92-29.41c-.05-.29-.07-.59-.07-.89,0-1.26.44-2.49,1.27-3.47h0c1.02-1.21,2.52-1.9,4.1-1.9h64.63c1.58,0,3.08.7,4.1,1.9.83.98,1.27,2.21,1.27,3.47,0,.29-.02.59-.07.89l-4.92,29.41c-.59,3.5-3.62,6.07-7.17,6.07h-7.4c1.04,1.49,1.88,3.12,2.53,4.85h7.04c1.92,0,3.65,1.07,4.51,2.79l13.58,27.2c.77,1.55.69,3.43-.22,4.9Z"/><path class="cls-1" d="m74.99,69.73c-9.95,0-18.02,8.05-18.02,18,0,2.06.34,4.05.98,5.88h6.66c-.98-1.74-1.54-3.73-1.54-5.88,0-3.29,1.32-6.26,3.49-8.43,2.17-2.17,5.12-3.49,8.43-3.49s6.28,1.32,8.45,3.49c2.15,2.17,3.49,5.15,3.49,8.43,0,2.15-.56,4.14-1.54,5.88h6.64c.65-1.83.98-3.82.98-5.88,0-9.95-8.07-18-18.02-18Z"/></svg>