<?xml version="1.0" encoding="UTF-8"?><svg id="_レイヤー_2" xmlns="http://www.w3.org/2000/svg" viewBox="0 0 150 150"><defs><style>.cls-1{fill:#3dc1f0;}</style></defs><path class="cls-1" d="m32.56,56.93v61.63h110.51v-61.63H32.56Zm6.38,41.27v-20.91c6.84-.48,12.24-6.16,12.24-13.12,0-.29-.04-.57-.06-.86h24.5c-6.8,5.01-11.34,14.07-11.34,24.44s4.54,19.44,11.34,24.44h-24.5c.02-.29.06-.57.06-.86,0-6.96-5.4-12.65-12.24-13.13Zm61.08-34.89h24.49c-.02.29-.07.57-.07.86,0,6.95,5.41,12.64,12.26,13.12v20.91c-6.84.48-12.26,6.17-12.26,13.13,0,.29.05.57.07.86h-24.49c6.8-5.01,11.34-14.08,11.34-24.44,0-10.37-4.54-19.43-11.34-24.44Z"/><polygon class="cls-1" points="127 44.19 19.68 44.19 19.68 104.76 26.06 104.76 26.06 50.57 127 50.57 127 44.19"/><polygon class="cls-1" points="107.88 31.44 6.93 31.44 6.93 87.76 13.31 87.76 13.31 37.82 107.88 37.82 107.88 31.44"/></svg>