<?xml version="1.0" encoding="UTF-8"?><svg id="_レイヤー_2" xmlns="http://www.w3.org/2000/svg" viewBox="0 0 150 150"><defs><style>.cls-1{fill:#3dc1f0;}</style></defs><path class="cls-1" d="m107.75,6.5H42.25c-12.67,0-22.98,10.31-22.98,22.98v91.04c0,12.67,10.31,22.98,22.98,22.98h58.56l2.49-2.49,24.95-24.95,2.49-2.49V29.48c0-12.67-10.31-22.98-22.98-22.98Zm-32.76,95.47c-17.86,0-30.14-2.32-30.33-4.55-.78-9.31,11.28-14.28,16.18-16,2.38-.84,6.42-3.83,6.42-5.61v-4.66c-1.51-1.68-2.66-5.09-3.34-8.95-1.59-.57-2.5-1.48-3.64-5.46-1.16-4.07,1.58-4.09,1.8-4.09-.38-2.6-.9-7.74.45-10.32,0,0-.93-1.67-.93-3.91,3.91.56,16.37-7.44,20.09-.93,5.4-.56,8.62,7.06,6.17,15.16,0,0,3.03-.14,1.82,4.09-1.13,3.97-2.04,4.88-3.64,5.46-.68,3.86-1.83,7.27-3.34,8.95v4.66c0,1.78,3.81,4.63,6.42,5.61,4.88,1.83,16.96,6.69,16.18,16-.19,2.23-12.47,4.55-30.33,4.55Zm22.28,33.02v-12.88c0-6.66,5.41-12.06,12.06-12.06h12.88l-24.94,24.94Z"/></svg>