<?xml version="1.0" encoding="UTF-8"?><svg id="_レイヤー_2" xmlns="http://www.w3.org/2000/svg" viewBox="0 0 150 150"><defs><style>.cls-1{fill:#3dc1f0;}</style></defs><rect class="cls-1" x="37.35" y="34.92" width="3.1" height="12.43"/><path class="cls-1" d="m61.48,47.35v-.52h13.26c1.37,0,2.48-1.11,2.48-2.48s-1.11-2.49-2.48-2.49h-13.26v-1.04c-.49-.56-.99-1.06-1.51-1.52l7.13-6.08c.97.74,2.18,1.18,3.5,1.18,3.2,0,5.8-2.6,5.8-5.8s-2.6-5.8-5.8-5.8-5.8,2.6-5.8,5.8c0,.99.25,1.92.69,2.73l-7.54,6.44c-5.78-3.68-12.6-2.85-15.41-2.85v12.43h18.96Z"/><path class="cls-1" d="m36.21,103.66c.47,1.02.73,2.16.73,3.35,0,4.46-3.62,8.08-8.08,8.08s-8.08-3.62-8.08-8.08c0-2.99,1.64-5.61,4.06-7l-12.84-4.12c-2.11,3.19-3.34,7.01-3.34,11.12,0,11.15,9.04,20.2,20.2,20.2,10.56,0,19.23-8.1,20.12-18.44-.99-.6-1.79-1.22-2.4-1.78l-10.37-3.33Z"/><path class="cls-1" d="m127.28,104.52c.25.78.39,1.62.39,2.48,0,4.46-3.62,8.08-8.08,8.08s-8.08-3.62-8.08-8.08c0-.86.14-1.7.39-2.48h-2.21l-7.15,7.15h-2.61c2.11,8.91,10.1,15.54,19.65,15.54,11.16,0,20.2-9.04,20.2-20.2,0-.84-.05-1.67-.15-2.48h-12.36Z"/><path class="cls-1" d="m91.69,71.69h32.21c1.26-2.46,4.14-8.15,4.39-9.11.31-1.24,1.55-2.8-3.11-2.8h-31.07c-4.35,0-7.15,7.15-4.35,9.63.76.67,1.43,1.39,1.93,2.28Z"/><path class="cls-1" d="m108.4,101.41h35.11s-6.56-21.86-17.88-27.65h-33.15c.52,2.33.21,5.63-1.48,10.87-3.11,9.63-3.73,15.23-14.29,15.23h-20.51c-1.55,0-6.53-16.47-6.21-19.89.31-3.42,6.21-16.47,7.46-19.26,1.24-2.8-1.86-9.01-7.46-10.88-5.59-1.86-4.66.62-4.66.62l-13.96,30.09c-14.26-2.72-23.42,7.09-24.88,10.3l41.73,13.4c2.09,2.15,6.18,4.31,12.64,4.31h40.39l7.15-7.15Z"/></svg>