<?xml version="1.0" encoding="UTF-8"?><svg id="_レイヤー_2" xmlns="http://www.w3.org/2000/svg" viewBox="0 0 150 150"><defs><style>.cls-1{fill:#3dc1f0;}</style></defs><path class="cls-1" d="m25.14,101.65c9.8,16.91,49.86,16.02,49.86,16.02,0,0,37.4,2.67,49.86-16.02H25.14Z"/><path class="cls-1" d="m143.24,67.63s-9.5-13.5-19.27-21.42c-7.13-5.77-35.53-14.01-48.97-14.01s-41.85,8.24-48.97,14.01c-9.77,7.92-19.27,21.42-19.27,21.42-1.35,1.5-1.96,3.44-1.7,5.37s1.39,3.67,3.1,4.81l16.98,11.27v6.33h99.73v-6.33l16.98-11.27c1.71-1.13,2.83-2.88,3.1-4.81s-.35-3.88-1.7-5.37Zm-62.54,12.86c-3.66,1.79-6.53,3.35-6.53,3.35,0,0-2.88-1.57-6.53-3.35-4.11-2.01-5.41-5.5-3.39-9.39,2.9-5.59.09-6.92.09-6.92l2.4-3.84s3.28,3.43,7.43-.2c4.15,3.63,7.42.2,7.42.2l2.41,3.84s-2.81,1.33.09,6.92c2.03,3.9.73,7.38-3.38,9.39Z"/></svg>