<?xml version="1.0" encoding="UTF-8"?><svg id="_レイヤー_2" xmlns="http://www.w3.org/2000/svg" viewBox="0 0 150 150"><defs><style>.cls-1{fill:#3dc1f0;}</style></defs><path class="cls-1" d="m113.72,111.51c-33.93,0-61.43-27.5-61.43-61.43,0-16.39,6.43-31.28,16.9-42.3C36.48,12.49,11.34,40.63,11.34,74.65c0,37.32,30.25,67.57,67.57,67.57,25.91,0,48.41-14.59,59.74-36.01-7.62,3.39-16.05,5.29-24.94,5.29Z"/><path class="cls-1" d="m99.59,54.87c.27.27.4.65.33,1.03l-2.25,13.11c-.07.44.11.88.46,1.14.36.26.83.29,1.22.09l11.78-6.19c.34-.18.74-.18,1.08,0l11.78,6.19c.39.21.87.17,1.22-.09.36-.26.53-.7.46-1.14l-2.25-13.11c-.07-.38.06-.76.33-1.03l9.53-9.28c.32-.31.43-.77.3-1.19-.14-.42-.5-.73-.94-.79l-13.17-1.92c-.38-.05-.71-.29-.88-.63l-5.89-11.93c-.19-.4-.6-.64-1.04-.64s-.85.25-1.04.64l-5.89,11.93c-.17.34-.5.58-.87.63l-13.17,1.92c-.44.06-.8.37-.94.79s-.02.88.3,1.19l9.53,9.28Z"/></svg>