<?xml version="1.0" encoding="UTF-8"?><svg id="_レイヤー_1" xmlns="http://www.w3.org/2000/svg" viewBox="0 0 150 150"><defs><style>.cls-1{fill:#3dc1f0;}</style></defs><path class="cls-1" d="m34.62,10.38v129.23h32.31v-20.19h16.15v20.19h32.31V10.38H34.62Zm22.21,82.11h-12.12v-16.15h12.12v16.15Zm0-28.27h-12.12v-16.15h12.12v16.15Zm0-28.27h-12.12v-16.15h12.12v16.15Zm24.23,56.54h-12.12v-16.15h12.12v16.15Zm0-28.27h-12.12v-16.15h12.12v16.15Zm0-28.27h-12.12v-16.15h12.12v16.15Zm24.23,56.54h-12.12v-16.15h12.12v16.15Zm0-28.27h-12.12v-16.15h12.12v16.15Zm0-28.27h-12.12v-16.15h12.12v16.15Z"/></svg>