<?xml version="1.0" encoding="UTF-8"?><svg id="_レイヤー_1" xmlns="http://www.w3.org/2000/svg" viewBox="0 0 150 150"><defs><style>.cls-1{fill:#3dc1f0;}</style></defs><path class="cls-1" d="m62.43,33.58c7.41,0,13.42-6.01,13.42-13.41s-6.01-13.42-13.42-13.42-13.41,6-13.41,13.42,6.01,13.41,13.41,13.41Z"/><path class="cls-1" d="m130.89,85c-.24-1.62-1.76-2.74-3.39-2.5l-6.87,1.03-.59-3.91c-.24-1.59-1.72-2.68-3.31-2.44l-.88.13c-.06-.47-.16-.94-.36-1.39l-6.38-14.74c-1.56-3.5-5.86-7.99-9.2-9.87,0,0-19.67-12.07-21.28-12.66-.93-.34-1.92-.49-2.93-.52l-9.83,19.67-11.93-16c-.75.49-1.39,1-1.84,1.55l-17.67,21.04-14.55,5.36c-2.76,1.02-4.24,4.01-3.37,6.82l.07.22c.85,2.76,4.51,4.12,7.32,3.47l11.05-2.47c2.96-.68,5.77-1.9,8.28-3.6l9.41-8.06,2.35,19.82c.21,1.62.28,2.01-.54,3.43l-6.8,10.96c-2.62,4.23-4.53,8.87-5.66,13.72l-5.02,21.61c-.61,3.47,1.71,6.79,5.18,7.41l.24.04c3.29.59,6.48-1.43,7.33-4.66l7.85-23.22,12.01-16.96,9.97,16.69c.62,1.23,1.44,2.35,2.43,3.32l18.55,18.14c2.34,2.29,6.04,2.39,8.5.23l.3-.26c1.26-1.1,2.02-2.67,2.13-4.34.1-1.67-.47-3.32-1.59-4.56l-15.66-17.45-8.51-24.94-1.69-25.65,11.25,4.79,10.2,15.22c-.62.63-.98,1.49-.84,2.43l.59,3.91-6.87,1.03c-1.63.24-2.75,1.76-2.5,3.39l2.82,18.78c.25,1.62,1.76,2.75,3.39,2.5l29.16-4.38c1.63-.25,2.75-1.77,2.5-3.39l-2.83-18.78Zm-65.76-18.29c0-1.06.85-1.91,1.91-1.91s1.91.85,1.91,1.91-.85,1.91-1.91,1.91c-1.05,0-1.91-.85-1.91-1.91Zm2.75,13.27c-1.05,0-1.91-.86-1.91-1.91s.86-1.91,1.91-1.91,1.91.85,1.91,1.91c0,1.06-.86,1.91-1.91,1.91Zm39.58,2.05c1.47,1.16,3.5,1.47,5.28.66l.16-.07c1.12-.51,1.95-1.38,2.46-2.4l1.79-.27.12.09.59,3.91-9.88,1.49-.51-3.41Z"/><path class="cls-1" d="m61.34,47.26l3.86,5.17,2.71-5.42-1.07-8.52c-2.39.22-4.55.58-6.47,1.06l.97,7.71Z"/></svg>