<?xml version="1.0" encoding="UTF-8"?><svg id="_レイヤー_2" xmlns="http://www.w3.org/2000/svg" viewBox="0 0 150 150"><defs><style>.cls-1{fill:#3dc1f0;}</style></defs><path class="cls-1" d="m117.32,20.62l-3.95-6.33c.93-.59,1.54-1.62,1.54-2.8,0-1.83-1.49-3.32-3.32-3.32H37.43c-3.46,0-6.61,1.41-8.88,3.68-2.27,2.26-3.73,5.42-3.73,8.87v110.18c0,6.04,4.9,10.94,10.94,10.94h80.21c5.09,0,9.21-4.12,9.21-9.21V29.7c0-4.63-3.42-8.41-7.87-9.08ZM47.78,55.25l7.31,8.65c.57.68,1.54.81,2.15.3l.3-.25c.61-.52.65-1.49.07-2.17l-7.35-8.7c-1.48-1.75-.86-3.18.16-4.04,1.02-.86,2.53-1.24,4.01.52l7.35,8.7c.57.68,1.54.81,2.15.29l.3-.25c.61-.52.65-1.49.07-2.17l-7.31-8.66c-2.65-3.14,1.48-6.44,4.07-3.37,3.11,3.68,6.9,8.17,6.9,8.17,4.79,5.63,4.81,8.12,4.28,11.58-.42,2.78-1.12,4.76,1.85,8.28l.94,1.12-4.17,4.93-1.64-1.94c-2.97-3.52-5.04-3.16-7.85-3.21-3.49-.06-5.95-.5-10.7-6.17,0,0-3.8-4.5-6.9-8.17-2.59-3.07,1.36-6.59,4.01-3.44Zm13.86,69.94h-2.36v-7.14l-2.34,4.95h-1.69l-2.41-4.98v7.16h-2.36v-12.58h2.26l3.35,7.13,3.28-7.13h2.26v12.57h0Zm11.82-10.4h-5.87v2.99h5.01v2.15h-5.01v3.09h5.87v2.17h-8.23v-12.57h8.23v2.17Zm12.58,10.4h-2.08l-5.16-7.85v7.85h-2.36v-12.57h2.08l5.16,7.84v-7.84h2.36v12.57h0Zm-7.6-38.02l4.17-4.93,12.27,14.54-4.86,4.11-11.58-13.71Zm20.21,33.7c0,.65-.12,1.26-.35,1.81-.23.55-.56,1.02-.98,1.4-.41.38-.91.68-1.47.9-.56.21-1.16.32-1.8.32s-1.24-.11-1.8-.32c-.56-.22-1.05-.52-1.46-.9-.41-.38-.74-.85-.97-1.4-.23-.54-.35-1.15-.35-1.81v-8.25h2.36v8.16c0,.74.2,1.32.6,1.73.4.41.93.61,1.62.61s1.22-.2,1.63-.61c.41-.41.61-.98.61-1.72v-8.16h2.36v8.25h0Zm5.35-65.33c-1.68,4.08-4.69,11.58-8.05,15.57-7.83,9.82-7.93.92-14.39,8.34l-18.11,21.44-4.84-4.09-.08.05s.02-.03.05-.07c.76-.9,11.53-13.66,20.8-24.63,9.17-10.86,16.82-19.92,18.43-21.83,3.31-3.92,8.79-1.14,6.18,5.22ZM31.71,20.87v-.15c0-1.45.62-2.91,1.7-3.99,1.08-1.08,2.5-1.67,4.01-1.67h68.29l3.63,5.81H31.71Z"/></svg>