<?xml version="1.0" encoding="UTF-8"?><svg id="_レイヤー_2" xmlns="http://www.w3.org/2000/svg" viewBox="0 0 150 150"><defs><style>.cls-1{fill:#3dc1f0;}</style></defs><rect class="cls-1" x="74.05" y="35.23" width="5.46" height="2.73"/><polygon class="cls-1" points="74.05 45.92 76.78 49.42 79.51 45.92 79.51 39.15 74.05 39.15 74.05 45.92"/><path class="cls-1" d="m39.13,60.14c1.69.82,3.74.8,5.47-.24l13.03-7.02.03.12.99,22.65h35.02l.22-8.18,1.9,8.18h11.87l-2.08-24.29c-.87-10.14-8.24-14.4-15.79-16.17l-13.01,16.69-13.01-16.69c-3.24.06-10.06,4.43-10.06,4.43l-9.91,6.85-6.96-16.08c-.93-2.43-3.64-3.64-6.07-2.72-2.43.93-3.64,3.64-2.72,6.07l7.65,23.03c.62,1.63,1.91,2.82,3.44,3.37Zm37.65-1.98c.85,0,1.54.69,1.54,1.53s-.69,1.53-1.54,1.53-1.53-.69-1.53-1.53.69-1.53,1.53-1.53Zm0,8.29c.85,0,1.54.69,1.54,1.53s-.69,1.53-1.54,1.53-1.53-.69-1.53-1.53.69-1.53,1.53-1.53Z"/><path class="cls-1" d="m76.78,29.28c6.68,0,12.09-5.41,12.09-12.08,0-6.67-5.41-12.09-12.09-12.09s-12.09,5.41-12.09,12.09c0,6.67,5.41,12.08,12.09,12.08Z"/><rect class="cls-1" x="31.3" y="78.06" width="90.97" height="3.8"/><polygon class="cls-1" points="39.67 90.14 39.67 86.49 113.89 86.49 113.89 90.14 122.26 83.5 31.3 83.5 39.67 90.14"/><path class="cls-1" d="m76.78,130.27c8.26,0,14.98-6.72,14.98-14.98s-6.72-14.98-14.98-14.98-14.98,6.72-14.98,14.98,6.72,14.98,14.98,14.98Z"/><path class="cls-1" d="m42.13,144.89h69.31v-55.95H42.13v55.95Zm34.65-50.29c11.43,0,20.69,9.26,20.69,20.68s-9.26,20.68-20.69,20.68-20.68-9.26-20.68-20.68,9.26-20.68,20.68-20.68Z"/></svg>