<?xml version="1.0" encoding="UTF-8"?><svg id="_レイヤー_1" xmlns="http://www.w3.org/2000/svg" viewBox="0 0 150 150"><defs><style>.cls-1{fill:#3dc1f0;}</style></defs><path class="cls-1" d="m14.54,51.95v65.93c0,4.55,3.69,8.24,8.25,8.24h10.3V43.7h-10.3c-4.56,0-8.25,3.69-8.25,8.24Z"/><path class="cls-1" d="m127.22,43.7h-10.3v82.42h10.3c4.55,0,8.24-3.69,8.24-8.24V51.95c0-4.56-3.69-8.24-8.24-8.24Z"/><path class="cls-1" d="m56.92,59.62c-.81.81-.81,2.12,0,2.92.81.81,2.12.81,2.92,0,.81-.81.81-2.12,0-2.92-.81-.81-2.12-.81-2.92,0Z"/><path class="cls-1" d="m98.26,30.61c0-3.71-3.03-6.73-6.73-6.73h-33.04c-3.71,0-6.73,3.02-6.73,6.73v13.09h-10.41v82.42h67.33V43.7h-10.41v-13.09h0Zm-16.28,43.86l-10.21,10.21c-1.08,1.08-2.82,1.08-3.9,0l-15.82-15.82c-.52-.52-.81-1.22-.81-1.95v-10.21c0-1.52,1.24-2.76,2.76-2.76h10.21c.73,0,1.43.29,1.95.81l15.81,15.82c1.08,1.08,1.08,2.82,0,3.9Zm8.04-30.77h-30.01v-11.57h30.01v11.57Z"/></svg>