<?xml version="1.0" encoding="UTF-8"?><svg id="_レイヤー_1" xmlns="http://www.w3.org/2000/svg" viewBox="0 0 150 150"><defs><style>.cls-1{fill:#3dc1f0;}</style></defs><path class="cls-1" d="m74.59,64.47c8.83,0,16-7.16,16-16s-7.16-16-16-16-16,7.16-16,16c0,8.84,7.16,16,16,16Z"/><path class="cls-1" d="m109.62,9.8c-1.4-1.5-3.75-1.58-5.24-.18-1.5,1.4-3.53,8.34-3.52,8.36.01.01,7.08-1.54,8.58-2.94,1.5-1.4,1.58-3.74.18-5.24Z"/><path class="cls-1" d="m101.32,31.85c1.73-.85,2.45-2.94,1.61-4.67-.85-1.74-2.94-2.45-4.67-1.61-1.73.85-5.48,6.54-5.47,6.56,0,.02,6.8.56,8.54-.29Z"/><path class="cls-1" d="m93.67,16.54c1.02-2.26,0-4.91-2.25-5.93-2.26-1.02-4.91,0-5.93,2.25-1.01,2.26-.04,10.96-.01,10.97.02,0,7.18-5.03,8.19-7.29Z"/><path class="cls-1" d="m133.37,37.13c-2.93-2.67-7.47-2.46-10.14.47l-28.65,24.68c-11.25,9.69-27.91,9.69-39.16,0l-28.65-24.68c-2.67-2.93-7.21-3.14-10.14-.47s-3.14,7.21-.47,10.14l38.39,42.98v13.17c0,5.38,12.1,9.39,20.45,9.39s20.45-4.01,20.45-9.39v-13.17l38.39-42.98c2.67-2.93,2.46-7.47-.47-10.14Z"/><path class="cls-1" d="m105.51,95.61v9.45c0,12.46-19.87,17.62-30.52,17.62s-30.52-5.16-30.52-17.62v-9.42c-15.98,4.38-26.59,12.13-26.59,20.95,0,13.69,25.57,24.8,57.11,24.8s57.14-11.1,57.14-24.8c0-8.82-10.62-16.57-26.62-20.98Z"/></svg>